<svg width="15" height="15" viewBox="0 0 15 15" fill="none" xmlns="http://www.w3.org/2000/svg">
<g clip-path="url(#clip0_3226_1332)">
<path d="M14 0H1C0.447715 0 0 0.447715 0 1V14C0 14.5523 0.447715 15 1 15H14C14.5523 15 15 14.5523 15 14V1C15 0.447715 14.5523 0 14 0Z" fill="#E02A37"/>
<path d="M2.92604 2.09619H5.14605V11.2642H5.74604V12.9082H2.62604V11.2642H3.37004V3.78819H2.29004L2.92604 2.09619ZM8.07808 12.9082L7.22608 12.0562V9.57219H9.02608V11.0482L9.23008 11.2642H10.3341L10.5261 11.0482V8.13219H8.07808L7.22608 7.28019V2.94819L8.07808 2.09619H11.4741L12.3261 2.94819V12.0562L11.4741 12.9082H8.07808ZM9.02608 6.28419L9.23008 6.48819H10.3341L10.5261 6.28419V3.95619L10.3341 3.75219H9.23008L9.02608 3.95619V6.28419Z" fill="#FFFEFF"/>
</g>
<defs>
<clipPath id="clip0_3226_1332">
<rect width="15" height="15" fill="white"/>
</clipPath>
</defs>
</svg>
