<svg width="15" height="15" viewBox="0 0 15 15" fill="none" xmlns="http://www.w3.org/2000/svg">
<g clip-path="url(#clip0_3226_1331)">
<path d="M14 0H1C0.447715 0 0 0.447715 0 1V14C0 14.5523 0.447715 15 1 15H14C14.5523 15 15 14.5523 15 14V1C15 0.447715 14.5523 0 14 0Z" fill="#DA7532"/>
<path d="M3.07838 2.09619H5.29838V11.2642H5.89838V12.9082H2.77838V11.2642H3.52238V3.78819H2.44238L3.07838 2.09619ZM7.22241 2.09619H12.5144L11.8664 3.75219H9.02241V6.48819H11.4704L12.3344 7.34019V12.0562L11.4704 12.9082H8.07441L7.22241 12.0562V9.57219H9.02241V11.0482L9.23841 11.2642H10.3184L10.5224 11.0482V8.34819L10.3184 8.13219H7.22241V2.09619Z" fill="#FFFEFF"/>
</g>
<defs>
<clipPath id="clip0_3226_1331">
<rect width="15" height="15" fill="white"/>
</clipPath>
</defs>
</svg>
