<svg width="15" height="15" viewBox="0 0 15 15" fill="none" xmlns="http://www.w3.org/2000/svg">
<g clip-path="url(#clip0_3226_1333)">
<path d="M14 0H1C0.447715 0 0 0.447715 0 1V14C0 14.5523 0.447715 15 1 15H14C14.5523 15 15 14.5523 15 14V1C15 0.447715 14.5523 0 14 0Z" fill="#299C53"/>
<path d="M2.06641 11.5901H0.566406L2.05641 3.96008H1.37641L1.91641 2.58008H4.00641L5.77641 11.5901H4.26641L3.92641 9.58008H2.40641L2.06641 11.5901ZM2.63641 8.20008H3.69641L3.16641 5.08008L2.63641 8.20008ZM8.00727 2.58008V10.2201H10.1672V11.5901H6.50727V3.96008H5.75727L6.29727 2.58008H8.00727ZM12.3432 2.58008V10.2201H14.5032V11.5901H10.8432V3.96008H10.0932L10.6332 2.58008H12.3432Z" fill="#FFFEFF"/>
</g>
<defs>
<clipPath id="clip0_3226_1333">
<rect width="15" height="15" fill="white"/>
</clipPath>
</defs>
</svg>
