<svg width="15" height="15" viewBox="0 0 15 15" fill="none" xmlns="http://www.w3.org/2000/svg">
<g clip-path="url(#clip0_3226_1330)">
<path d="M14 0H1C0.447715 0 0 0.447715 0 1V14C0 14.5523 0.447715 15 1 15H14C14.5523 15 15 14.5523 15 14V1C15 0.447715 14.5523 0 14 0Z" fill="#E8B534"/>
<path d="M2.97291 2.09619H5.19291V11.2642H5.79291V12.9082H2.67291V11.2642H3.41691V3.78819H2.33691L2.97291 2.09619ZM11.4249 2.09619L12.2889 2.94819V7.05219L9.07294 9.45219V11.2642L12.2889 11.2402V12.9082H7.27294V8.64819L10.4769 6.24819V3.95619L10.2729 3.75219H9.27694L9.07294 3.95619V5.43219H7.27294V2.94819L8.12494 2.09619H11.4249Z" fill="#FFFEFF"/>
</g>
<defs>
<clipPath id="clip0_3226_1330">
<rect width="15" height="15" fill="white"/>
</clipPath>
</defs>
</svg>
