<svg width="69" height="20" viewBox="0 0 69 20" fill="none" xmlns="http://www.w3.org/2000/svg">
<rect width="69" height="20" rx="4" fill="#F5F5F5"/>
<g clip-path="url(#clip0_3297_14243)">
<path d="M11.2964 11.889H10.5104C9.00683 11.889 7.81076 10.6667 7.81076 9.20673C7.81076 7.74675 9.041 6.52441 10.5104 6.52441H11.2964V11.889ZM3.5 6.52441H4.28597C5.78958 6.52441 6.98562 7.74675 6.98562 9.20673C6.98562 10.6667 5.75542 11.889 4.28597 11.889H3.5V6.52441Z" fill="#131313"/>
<path d="M22.2598 6.52539V11.8891H23.0772V6.52539H22.2598Z" fill="#131313"/>
<path d="M19.8612 8.17475C19.4916 8.17475 19.1303 8.28364 18.823 8.48764C18.5157 8.69164 18.2762 8.9816 18.1348 9.32084C17.9934 9.66009 17.9564 10.0334 18.0285 10.3935C18.1006 10.7537 18.2786 11.0845 18.5399 11.3441C18.8012 11.6038 19.1342 11.7806 19.4966 11.8522C19.8591 11.9238 20.2348 11.8871 20.5762 11.7465C20.9177 11.606 21.2095 11.3681 21.4148 11.0627C21.6201 10.7574 21.7297 10.3985 21.7297 10.0313C21.7292 9.53906 21.5322 9.06714 21.1818 8.71908C20.8315 8.37103 20.3566 8.17526 19.8612 8.17475ZM19.8612 11.1438C19.7121 11.1455 19.5643 11.1178 19.4262 11.0622C19.288 11.0067 19.1623 10.9245 19.0564 10.8204C18.9504 10.7163 18.8663 10.5924 18.8089 10.4557C18.7515 10.3191 18.7219 10.1725 18.7219 10.0245C18.7219 9.87642 18.7515 9.72983 18.8089 9.5932C18.8663 9.45658 18.9504 9.33262 19.0564 9.22851C19.1623 9.12441 19.288 9.04222 19.4262 8.9867C19.5643 8.93119 19.7121 8.90345 19.8612 8.9051C20.4796 8.9051 20.9879 9.41018 20.9879 10.0245C20.9877 10.3214 20.8689 10.606 20.6576 10.8158C20.4464 11.0257 20.1599 11.1437 19.8612 11.1438ZM25.6501 8.17503C25.2678 8.17472 24.8947 8.29159 24.5816 8.50971V6.5253H23.7626V11.8892H24.5816V11.5535C24.8222 11.7202 25.0989 11.8283 25.3893 11.869C25.6798 11.9098 25.9757 11.882 26.2534 11.7879C26.531 11.6939 26.7824 11.5362 26.9873 11.3277C27.1922 11.1191 27.3447 10.8656 27.4327 10.5876C27.5206 10.3095 27.5414 10.0149 27.4934 9.72737C27.4454 9.43988 27.3299 9.16765 27.1563 8.93274C26.9828 8.69782 26.756 8.50681 26.4943 8.37518C26.2326 8.24354 25.9434 8.17497 25.6501 8.17503ZM25.6501 11.1441C25.3535 11.1409 25.0701 11.0215 24.8615 10.8119C24.653 10.6024 24.536 10.3195 24.536 10.0248C24.536 9.73004 24.653 9.4472 24.8615 9.23763C25.0701 9.02807 25.3535 8.90869 25.6501 8.90541C26.2686 8.90541 26.7768 9.41049 26.7768 10.0247C26.7766 10.3216 26.6579 10.6062 26.4466 10.8161C26.2354 11.026 25.9489 11.144 25.6501 11.1441ZM14.8814 6.52441H12.9336V11.8828H14.8814C16.3681 11.8828 17.5778 10.6809 17.5778 9.20365C17.5778 7.72646 16.3681 6.52441 14.8814 6.52441ZM14.8814 11.0704H13.7512V7.33676H14.8814C15.9163 7.33676 16.7602 8.17519 16.7602 9.20365C16.7602 10.2321 15.9163 11.0704 14.8814 11.0704Z" fill="#131313"/>
<path d="M30.5152 8.17636L29.4502 10.5554L28.3852 8.17636H27.4922L29.0037 11.5519C29.0037 11.5519 28.6339 12.379 28.6332 12.3809C28.5859 12.4857 28.4988 12.5676 28.391 12.6088C28.2831 12.65 28.1633 12.6471 28.0576 12.6008L27.9402 12.5488L27.6101 13.2847H27.6115L27.8947 13.4102C28.151 13.5229 28.4419 13.5301 28.7036 13.4301C28.9653 13.3302 29.1764 13.1312 29.2907 12.8769L31.4081 8.17578L30.5152 8.17636Z" fill="#131313"/>
<path d="M36.8628 10.6788C36.5021 11.2321 35.8673 11.4796 35.3551 11.4796C34.0206 11.4796 33.191 10.4895 33.191 9.20821C33.191 7.9269 34.0206 6.9368 35.3551 6.9368C35.8673 6.9368 36.4083 7.15522 36.7257 7.63571L37.1153 7.3081C36.6681 6.73296 36.0477 6.5 35.3551 6.5C33.7969 6.5 32.7148 7.63571 32.7148 9.20818C32.7148 10.7807 33.7969 11.9164 35.3551 11.9164C36.1054 11.9164 36.769 11.647 37.2524 10.9773L36.8628 10.6788ZM38.0189 11.8964H38.4517V8.19991H38.0189V11.8964ZM37.9107 6.97866C37.9107 7.16066 38.0549 7.30627 38.2353 7.30627C38.4156 7.30627 38.5599 7.16066 38.5599 6.97866C38.5599 6.79666 38.4156 6.65105 38.2353 6.65105C38.0549 6.65105 37.9107 6.79666 37.9107 6.97866Z" fill="#131313"/>
<path d="M39.3844 11.891H39.8493V10.0554C39.8493 9.04627 40.3994 8.5536 41.0888 8.5536C41.8248 8.5536 41.9875 9.1337 41.9875 9.72963V11.891H42.4523V9.70582C42.4523 8.90324 42.2044 8.12451 41.0888 8.12451C40.5078 8.12451 40.0507 8.45825 39.8648 8.8635H39.8415C39.8261 8.792 39.8183 8.49003 39.8106 8.21985H39.3457C39.3457 8.41057 39.3845 8.98271 39.3845 9.25286L39.3844 11.891ZM46.2324 10.9057C46 11.303 45.5042 11.5573 45.0316 11.5573C43.947 11.5573 43.6759 10.572 43.6759 10.1746H46.6818V9.84091C46.6818 8.99068 46.1007 8.12454 45.0006 8.12454C43.9548 8.12454 43.2111 8.95096 43.2111 10.0475C43.2111 11.1838 43.9315 11.9864 45.0239 11.9864C45.6591 11.9864 46.2092 11.756 46.5733 11.1997L46.2324 10.9057ZM43.6759 9.74556C43.6759 9.55488 43.9625 8.55362 44.9774 8.55362C45.6669 8.55362 46.2169 9.09398 46.2169 9.74556H43.6759ZM47.3846 11.891H47.8495V10.0554C47.8495 9.04627 48.3995 8.5536 49.089 8.5536C49.5925 8.5536 49.8327 9.00655 49.8327 9.68197V11.891H50.2975V9.825C50.2975 9.30055 50.5222 8.5536 51.3821 8.5536C52.1181 8.5536 52.2808 9.1337 52.2808 9.72963V11.891H52.7456V9.70582C52.7456 8.90324 52.4977 8.12451 51.3821 8.12451C50.8863 8.12451 50.3905 8.37085 50.1658 8.91912C49.9954 8.36288 49.5615 8.12451 49.089 8.12451C48.5079 8.12451 48.0509 8.45825 47.8649 8.8635H47.8417C47.8262 8.792 47.8184 8.49003 47.8107 8.21985H47.3459C47.3459 8.41057 47.3846 8.98271 47.3846 9.25286V11.891ZM56.4311 9.45154C56.4311 8.52184 55.8733 8.12454 55.0056 8.12454C54.5408 8.12454 53.983 8.30731 53.6421 8.64103L53.9133 8.96683C54.2309 8.68871 54.5873 8.55362 55.0056 8.55362C55.5789 8.55362 56.0127 8.8079 56.0127 9.4436V9.6661H55.4705C54.7655 9.6661 53.4872 9.77734 53.4872 10.8978C53.4872 11.6765 54.1379 11.9864 54.75 11.9864C55.3542 11.9864 55.7416 11.7639 56.005 11.2951H56.0205C56.0205 11.5017 56.036 11.7083 56.067 11.891H56.5008C56.4466 11.4699 56.4311 11.0646 56.4311 10.3495V9.45154ZM56.0127 10.0475V10.2939C56.0127 10.9057 55.7571 11.5573 54.7655 11.5573C54.3781 11.5573 53.952 11.3269 53.952 10.8739C53.952 10.2462 54.7267 10.0475 55.5014 10.0475H56.0127Z" fill="#131313"/>
</g>
<path d="M62.4486 9.58393C62.676 9.81365 62.676 10.186 62.4486 10.4157L59.6172 13.2757C59.5414 13.3523 59.4185 13.3523 59.3427 13.2757C59.2669 13.1992 59.2669 13.075 59.3427 12.9985L62.1741 10.1385C62.2499 10.0619 62.2499 9.93777 62.1741 9.8612L59.3427 7.0012C59.2669 6.92463 59.2669 6.80051 59.3427 6.72393C59.4185 6.64736 59.5414 6.64736 59.6172 6.72393L62.4486 9.58393Z" fill="#131313"/>
<defs>
<clipPath id="clip0_3297_14243">
<rect width="53" height="7" fill="white" transform="translate(3.5 6.5)"/>
</clipPath>
</defs>
</svg>
