<svg width="24" height="24" viewBox="0 0 24 24" fill="none" xmlns="http://www.w3.org/2000/svg">
<path d="M3.75377 5.25669C5.82652 3.18398 9.1869 3.18396 11.2596 5.25669L12.0106 6.00767L12.7616 5.25767C14.8345 3.18503 18.1946 3.18485 20.2674 5.25767C22.3401 7.33049 22.3401 10.6906 20.2674 12.7635L12.0106 21.0204L3.75377 12.7626C1.74589 10.7547 1.68306 7.53845 3.5653 5.45493L3.75377 5.25669ZM10.5526 5.96372C8.8704 4.28152 6.14303 4.28152 4.46081 5.96372C2.7786 7.64594 2.77859 10.3733 4.46081 12.0555L12.0106 19.6053L19.5604 12.0565C21.2426 10.3741 21.2426 7.64697 19.5604 5.9647C17.8782 4.28246 15.1511 4.28247 13.4686 5.9647L12.0106 7.42173L10.5526 5.96372Z" fill="black"/>
</svg>
