<svg width="17" height="16" viewBox="0 0 17 16" fill="none" xmlns="http://www.w3.org/2000/svg">
<path d="M7.46655 0.55722C7.83336 -0.186026 8.8932 -0.186026 9.26002 0.55722L11.0695 4.22371C11.2152 4.51885 11.4968 4.72342 11.8225 4.77075L15.8687 5.3587C16.6889 5.47788 17.0164 6.48585 16.4229 7.06439L13.495 9.91835C13.2593 10.1481 13.1518 10.4791 13.2074 10.8035L13.8986 14.8333C14.0387 15.6502 13.1813 16.2732 12.4477 15.8875L8.82862 13.9849C8.5373 13.8317 8.18926 13.8317 7.89794 13.9849L4.2789 15.8875C3.54527 16.2732 2.68784 15.6502 2.82795 14.8333L3.51913 10.8035C3.57476 10.4791 3.46722 10.1481 3.23153 9.91835L0.303666 7.06439C-0.289851 6.48585 0.0376589 5.47788 0.857879 5.3587L4.90409 4.77075C5.2298 4.72342 5.51136 4.51885 5.65703 4.22371L7.46655 0.55722Z" fill="#3D3D3D"/>
</svg>
