<svg width="24" height="24" viewBox="0 0 24 24" fill="none" xmlns="http://www.w3.org/2000/svg">
<path d="M18 14.75C18.1075 14.7501 18.2033 14.8189 18.2373 14.9209L18.5137 15.75H18.8203L19.0967 14.9209C19.1404 14.79 19.2822 14.7191 19.4131 14.7627C19.5437 14.8065 19.6148 14.9483 19.5713 15.0791L19.3477 15.75H20C20.1381 15.75 20.25 15.8619 20.25 16C20.25 16.1381 20.1381 16.25 20 16.25H19.1807L18.9043 17.0791C18.8703 17.1811 18.7745 17.2499 18.667 17.25C18.5594 17.25 18.4637 17.1811 18.4297 17.0791L18.1533 16.25H17.8477L17.5713 17.0791C17.5373 17.181 17.4414 17.2498 17.334 17.25C17.2264 17.25 17.1308 17.1811 17.0967 17.0791L16.8203 16.25H16C15.8619 16.25 15.75 16.1381 15.75 16C15.75 15.8619 15.8619 15.75 16 15.75H16.6533L16.4297 15.0791C16.386 14.9481 16.4569 14.8064 16.5879 14.7627C16.7188 14.7192 16.8607 14.79 16.9043 14.9209L17.1807 15.75H17.4863L17.7627 14.9209L17.7998 14.8516C17.846 14.7892 17.9194 14.7501 18 14.75Z" fill="black"/>
<path fill-rule="evenodd" clip-rule="evenodd" d="M18 12C20.2091 12 22 13.7909 22 16C22 18.2091 20.2091 20 18 20C15.7909 20 14 18.2091 14 16C14 13.7909 15.7909 12 18 12ZM18 13C16.3431 13 15 14.3431 15 16C15 17.6569 16.3431 19 18 19C19.6569 19 21 17.6569 21 16C21 14.3431 19.6569 13 18 13Z" fill="black"/>
<path fill-rule="evenodd" clip-rule="evenodd" d="M20.1025 5.00488C20.6067 5.05621 21 5.48232 21 6V12C20.6922 11.7688 20.3571 11.572 20 11.416V9H4V18H13.417C13.573 18.3569 13.7689 18.6923 14 19H4C3.48232 19 3.05621 18.6067 3.00488 18.1025L3 18V6C3 5.44772 3.44772 5 4 5H20L20.1025 5.00488ZM4 8H20V6H4V8Z" fill="black"/>
<path d="M10.5 16C10.7761 16 11 16.2239 11 16.5C11 16.7761 10.7761 17 10.5 17H5.5C5.22386 17 5 16.7761 5 16.5C5 16.2239 5.22386 16 5.5 16H10.5Z" fill="black"/>
</svg>
