<svg width="17" height="17" viewBox="0 0 17 17" fill="none" xmlns="http://www.w3.org/2000/svg">
<path d="M8.36416 3.20402C8.62399 2.67756 9.37471 2.67756 9.63454 3.20402L10.9163 5.80112C11.0195 6.01018 11.2189 6.15508 11.4496 6.18861L14.3157 6.60507C14.8967 6.68949 15.1287 7.40347 14.7082 7.81327L12.6343 9.83483C12.4674 9.99756 12.3912 10.232 12.4306 10.4618L12.9202 13.3163C13.0195 13.8949 12.4121 14.3362 11.8925 14.063L9.32897 12.7153C9.12261 12.6068 8.87609 12.6068 8.66973 12.7153L6.10625 14.063C5.58659 14.3362 4.97925 13.8949 5.07849 13.3163L5.56807 10.4618C5.60748 10.232 5.5313 9.99756 5.36436 9.83483L3.29045 7.81327C2.87005 7.40347 3.10203 6.68949 3.68302 6.60507L6.54909 6.18861C6.7798 6.15508 6.97924 6.01018 7.08242 5.80112L8.36416 3.20402Z" fill="#660AD9"/>
</svg>
