<svg width="24" height="24" viewBox="0 0 24 24" fill="none" xmlns="http://www.w3.org/2000/svg">
<path d="M11.5518 4.03809C11.7352 3.66673 12.2648 3.66673 12.4482 4.03809L14.2578 7.70508C14.4763 8.14767 14.8992 8.45441 15.3877 8.52539L19.4336 9.11328C19.8435 9.17291 20.0072 9.67652 19.7109 9.96582L16.7832 12.8203C16.4297 13.1649 16.2682 13.661 16.3516 14.1475L17.043 18.1777C17.1128 18.586 16.6841 18.8975 16.3174 18.7051L12.6982 16.8018C12.2613 16.572 11.7387 16.572 11.3018 16.8018L7.68262 18.7051C7.31595 18.8975 6.88715 18.586 6.95703 18.1777L7.64844 14.1475C7.73179 13.661 7.57026 13.1649 7.2168 12.8203L4.28906 9.96582C3.99276 9.67653 4.15651 9.17291 4.56641 9.11328L8.6123 8.52539C9.10079 8.45441 9.52366 8.14767 9.74219 7.70508L11.5518 4.03809Z" stroke="black"/>
</svg>
